<?xml version="1.0" encoding="utf-8"?>
<!-- Generator: Adobe Illustrator 19.2.1, SVG Export Plug-In . SVG Version: 6.00 Build 0)  -->
<svg version="1.1" id="layer" xmlns="http://www.w3.org/2000/svg" xmlns:xlink="http://www.w3.org/1999/xlink" x="0px" y="0px"
	 viewBox="0 0 652 652" style="enable-background:new 0 0 652 652;" xml:space="preserve">
<style type="text/css">
	.st0{fill:#636466;}
	.st1{fill:#E12726;}
	.st2{fill:#B3282D;}
</style>
<polygon class="st0" points="8.7,495 8.7,570.9 25.4,570.9 25.4,541.5 61.6,541.5 61.6,526.3 25.4,526.3 25.4,510.2 66.5,510.2 
	66.5,495 "/>
<path class="st0" d="M103.3,514.5l10.1,24.6H93.3L103.3,514.5z M95.9,494.4l-32.5,76.5h17l6.9-17h32.1l6.9,17h17.5l-32.5-76.5H95.9z
	"/>
<polygon class="st0" points="202.4,495 202.4,541.7 166.8,495 151.4,495 151.4,570.9 167.9,570.9 167.9,522.6 204.7,570.9 
	218.9,570.9 218.9,495 "/>
<g>
	<path class="st0" d="M230.7,559.8l9.9-11.8c6.8,5.6,14,9.2,22.7,9.2c6.8,0,10.9-2.7,10.9-7.2v-0.2c0-4.2-2.6-6.4-15.3-9.7
		c-15.3-3.9-25.2-8.1-25.2-23.2v-0.2c0-13.8,11.1-22.9,26.6-22.9c11.1,0,20.5,3.5,28.2,9.7l-8.7,12.6c-6.7-4.7-13.3-7.5-19.7-7.5
		c-6.4,0-9.8,2.9-9.8,6.6v0.2c0,5,3.3,6.6,16.4,10c15.4,4,24.1,9.5,24.1,22.8v0.2c0,15.1-11.5,23.5-27.9,23.5
		C251.4,572,239.8,568,230.7,559.8"/>
	<polygon class="st0" points="304,495 320.7,495 320.7,525 351.5,525 351.5,495 368.2,495 368.2,570.9 351.5,570.9 351.5,540.4 
		320.7,540.4 320.7,570.9 304,570.9 	"/>
	<path class="st0" d="M409.8,494.4h15.4l32.5,76.5h-17.5l-6.9-17h-32.1l-6.9,17h-17L409.8,494.4z M427.3,539.1l-10.1-24.6
		l-10.1,24.6H427.3z"/>
	<polygon class="st0" points="450.1,495 468,495 483.7,546.4 500.7,494.8 515,494.8 532.1,546.4 547.8,495 565.3,495 539.3,571.5 
		524.8,571.5 507.7,521.8 490.5,571.5 476,571.5 	"/>
	<polygon class="st0" points="574.9,495 632.2,495 632.2,509.8 591.5,509.8 591.5,525.3 627.3,525.3 627.3,540.1 591.5,540.1 
		591.5,556 632.7,556 632.7,570.9 574.9,570.9 	"/>
	<path class="st1" d="M320,145.8l-73-73.2c-0.7-0.7-1.4-0.6-1.8-0.5c-0.8,0.2-1.4,1-1.4,1.7c0,0,0,48.7,0,48.7
		c0,2.7,1.1,5.3,3.1,7.1l0,0l44.6,44.6L320,145.8z"/>
	<path class="st2" d="M197.4,121.7c-0.5-0.6-1.2-0.6-1.7-0.5c-0.8,0.2-1.3,0.9-1.4,1.6l0.1,48.6c-0.4,4.5,3,7.6,3,7.6l70.5,70.5
		c0.4,0.3,1.3,1.1,2.8,1.1l0-55.5L197.4,121.7z"/>
	<path class="st1" d="M320,203l-28.4-28.7l-20.9,20.9l0,55.5c2,0,3.1-1.4,3.2-1.6L320,203z"/>
	<path class="st1" d="M396.2,73.8c0-1.3-1-1.8-1.8-1.8c-0.4,0-0.9,0.2-1.4,0.6l-73,73.1v57.2l71.9-71.9l0.1-0.1c2.4-2,4.1-5,4.1-7.7
		V73.8z"/>
	<polygon class="st2" points="320,145.8 291.6,174.2 320,203 	"/>
	<path class="st1" d="M200.8,265.9l-73.2,73c-0.7,0.7-0.6,1.4-0.5,1.8c0.2,0.8,1,1.4,1.7,1.4c0,0,48.7,0,48.7,0
		c2.7,0,5.3-1.1,7.1-3.1l0,0l44.6-44.6L200.8,265.9z"/>
	<path class="st2" d="M176.7,388.5c-0.6,0.5-0.6,1.2-0.5,1.7c0.2,0.8,0.9,1.3,1.6,1.4l48.6-0.1c4.5,0.4,7.6-3,7.6-3l70.5-70.5
		c0.3-0.4,1.1-1.3,1.1-2.8l-55.5,0L176.7,388.5z"/>
	<path class="st1" d="M257.9,265.9l-28.7,28.4l20.9,20.9l55.5,0c0-2-1.4-3.1-1.6-3.2L257.9,265.9z"/>
	<path class="st1" d="M128.8,189.6c-1.2,0-1.8,1.1-1.8,1.8c0,0.4,0.2,0.9,0.6,1.4l73.1,73l57.2,0L186,193.9l-0.2-0.1
		c-2-2.4-5-4.1-7.7-4.1H128.8z"/>
	<polygon class="st2" points="200.8,265.9 229.2,294.3 257.9,265.9 	"/>
	<path class="st1" d="M320.6,385.7l73,73.2c0.7,0.7,1.4,0.6,1.8,0.5c0.8-0.2,1.4-1,1.4-1.7c0,0,0-48.6,0-48.7c0-2.7-1.1-5.3-3.1-7.1
		l0,0L349,357.2L320.6,385.7z"/>
	<path class="st2" d="M443.2,409.7c0.5,0.6,1.2,0.6,1.7,0.5c0.8-0.2,1.3-0.9,1.4-1.6l-0.1-48.6c0.4-4.5-3-7.6-3-7.6L372.7,282
		c-0.3-0.3-1.3-1.1-2.8-1.1l0,55.5L443.2,409.7z"/>
	<path class="st1" d="M320.6,328.5l28.4,28.7l20.9-20.9l0-55.5c-2,0-3.1,1.4-3.2,1.6L320.6,328.5z"/>
	<path class="st1" d="M244.4,457.6c0,1.2,1,1.8,1.8,1.8c0.4,0,0.9-0.2,1.4-0.6l73-73.1l0-57.2l-71.9,71.9l-0.1,0.2
		c-2.4,2-4.1,5-4.1,7.7V457.6z"/>
	<polygon class="st2" points="320.6,385.7 349,357.2 320.6,328.5 	"/>
	<path class="st1" d="M440.8,265.6l73.2-73c0.7-0.7,0.6-1.4,0.5-1.8c-0.2-0.8-1-1.4-1.7-1.4c0,0-48.7,0-48.7,0
		c-2.7,0-5.3,1.1-7.1,3.1l0,0l-44.6,44.6L440.8,265.6z"/>
	<path class="st2" d="M464.8,142.9c0.6-0.5,0.7-1.2,0.5-1.7c-0.2-0.8-0.9-1.3-1.6-1.4l-48.6,0.1c-4.5-0.4-7.6,3-7.6,3l-70.5,70.5
		c-0.3,0.3-1.1,1.3-1.1,2.8l55.5,0L464.8,142.9z"/>
	<path class="st1" d="M383.6,265.6l28.7-28.4l-20.9-20.9l-55.5,0c0,2,1.4,3.1,1.6,3.2L383.6,265.6z"/>
	<path class="st1" d="M512.7,341.8c1.3,0,1.8-1.1,1.8-1.8c0-0.4-0.2-0.9-0.6-1.4l-73.1-73l-57.2,0l71.9,71.9l0.2,0.2
		c2,2.4,5,4.1,7.7,4.1H512.7z"/>
	<polygon class="st2" points="440.8,265.6 412.3,237.1 383.6,265.6 	"/>
</g>
</svg>
