<?xml version="1.0" encoding="UTF-8"?>
<svg id="PANTONE" xmlns="http://www.w3.org/2000/svg" viewBox="0 0 248.524 56.869">
  <defs>
    <style>
      .cls-1 {
        fill: #FFFFFF;
      }
    </style>
  </defs>
  <path class="cls-1" d="M69.689,26.448h10.668v4.471h-10.668v8.655h-4.918v-22.357h17.023v4.472h-12.105v4.759ZM94.97,17.059l9.582,22.517h-5.142l-2.044-5.014h-9.454l-2.044,5.014h-5.015l9.582-22.517h4.535ZM95.609,30.217l-2.971-7.25-2.97,7.25h5.94ZM121.81,30.984l-10.476-13.766h-4.536v22.357h4.854v-14.213l10.828,14.213h4.184v-22.357h-4.854v13.766ZM140.733,26.193c-3.864-.99-4.823-1.469-4.823-2.938v-.064c0-1.085.991-1.948,2.875-1.948s3.833.831,5.813,2.204l2.556-3.705c-2.268-1.821-5.047-2.843-8.305-2.843-4.567,0-7.825,2.683-7.825,6.739v.064c0,4.44,2.907,5.685,7.41,6.835,3.736.958,4.503,1.597,4.503,2.843v.064c0,1.309-1.213,2.108-3.226,2.108-2.555,0-4.663-1.054-6.674-2.714l-2.907,3.481c2.683,2.395,6.1,3.577,9.486,3.577,4.823,0,8.208-2.491,8.208-6.931v-.064c0-3.897-2.555-5.526-7.091-6.707ZM165.725,26.065h-9.071v-8.847h-4.918v22.357h4.918v-8.975h9.071v8.975h4.919v-22.357h-4.919v8.847ZM187.411,17.059l9.582,22.517h-5.142l-2.044-5.014h-9.454l-2.044,5.014h-5.014l9.582-22.517h4.535ZM188.05,30.217l-2.971-7.25-2.97,7.25h5.94ZM218.886,32.357l-5.015-15.203h-4.215l-5.014,15.203-4.632-15.139h-5.27l7.634,22.517h4.28l5.046-14.628,5.046,14.628h4.279l7.634-22.517h-5.142l-4.631,15.139ZM236.387,35.2v-4.695h10.54v-4.376h-10.54v-4.536h11.977v-4.376h-16.863v22.357h17.023v-4.375h-12.137Z"/>
  <path class="cls-1" d="M9.884,14.582l-.015-7.127c.011-.103.096-.21.208-.233.078-.015.174-.005.254.079l10.761,10.764,3.065-3.061-6.544-6.544-.003-.002c-.293-.268-.461-.649-.461-1.046,0-.014.002-7.155.002-7.155.004-.101.085-.217.205-.245.065-.015.166-.02.266.078l10.708,10.738L39.038.093c.069-.068.142-.093.205-.093.115,0,.27.083.27.267v7.246c0,.396-.255.836-.605,1.134l-.021.022-17.318,17.308c-.023.018-.187.231-.476.231-.226,0-.362-.12-.414-.165l-10.355-10.344s-.497-.458-.44-1.117ZM26.209,35.69c0-.289-.212-.453-.231-.476L8.67,17.896l-.022-.022c-.297-.35-.737-.605-1.134-.605H.267c-.184,0-.267.155-.267.27,0,.063.026.136.093.205l10.736,10.709L.09,39.162c-.098.099-.094.2-.079.265.028.12.144.2.245.205,0,0,7.141.002,7.155.002.396,0,.777-.168,1.045-.461l.003-.003,6.543-6.542,3.063,3.063-10.765,10.761c-.084.08-.094.176-.079.254.022.112.13.197.233.209l7.127-.016c.659.059,1.117-.44,1.117-.44l10.344-10.355c.045-.051.166-.188.166-.414ZM46.421,41.17l-10.355-10.344c-.051-.045-.188-.165-.415-.165-.288,0-.452.212-.475.231l-17.318,17.308-.022.022c-.35.298-.604.737-.604,1.135v7.245c0,.184.155.267.27.267.063,0,.137-.025.204-.093l10.709-10.736,10.708,10.738c.099.098.2.094.265.079.12-.027.2-.144.205-.245,0,0,.003-7.141.003-7.154,0-.397-.169-.778-.462-1.046l-.002-.002-6.542-6.542,3.063-3.063,10.761,10.764c.08.084.176.094.254.079.112-.022.197-.13.208-.233l-.016-7.127c.059-.658-.439-1.117-.439-1.117ZM46.054,28.411l10.738-10.708c.098-.099.094-.2.079-.265-.027-.12-.144-.2-.245-.205,0,0-7.141-.002-7.155-.002-.396,0-.778.168-1.045.461l-.003.002-6.543,6.542-3.063-3.063,10.765-10.761c.084-.08.094-.177.079-.255-.022-.112-.13-.197-.233-.208l-7.127.015c-.659-.058-1.117.44-1.117.44l-10.344,10.355c-.045.051-.166.188-.166.414,0,.288.212.453.231.476l17.308,17.318.022.022c.297.35.738.605,1.134.605h7.246c.184,0,.267-.154.267-.27,0-.063-.025-.136-.093-.205l-10.735-10.709Z"/>
</svg>