<?xml version="1.0" encoding="UTF-8"?>
<svg id="layer" xmlns="http://www.w3.org/2000/svg" viewBox="0 0 387.57 387.47">
  <defs>
    <style>
      .cls-1 {
        fill: #fff;
        stroke-width: 0px;
      }
    </style>
  </defs>
  <path class="cls-1" d="M267.33.17c-.4,0-.9.2-1.4.6l-72.93,73.03L120,.6c-.7-.7-1.4-.6-1.8-.5-.8.2-1.4,1-1.4,1.7v48.7c0,2.7,1.1,5.3,3.1,7.1l44.7,44.7-20.9,20.9v-.1L70.4,49.7c-.5-.6-1.2-.6-1.7-.5-.8.2-1.3.9-1.4,1.6l.1,48.6c-.4,4.5,3,7.6,3,7.6l70.5,70.5c.4.3,1.3,1.1,2.8,1.1v.1c2,0,3.1-1.4,3.2-1.6l46.03-46.03,3-3,68.9-68.9.1-.1c2.4-2,4.1-5,4.1-7.7V1.97h.1c0-1.3-1-1.8-1.8-1.8Z"/>
  <path class="cls-1" d="M178.6,243.2h0c0-2-1.4-3.1-1.6-3.2l-42.05-42.05h.1S59,121.9,59,121.9l-.2-.1c-2-2.4-5-4.1-7.7-4.1H1.8v-.1c-1.2,0-1.8,1.1-1.8,1.8,0,.4.2.9.6,1.4l73.2,73.1h0S.6,266.9.6,266.9c-.7.7-.6,1.4-.5,1.8.2.8,1,1.4,1.7,1.4h48.7c2.7,0,5.3-1.1,7.1-3.1l44.65-44.65,20.85,20.85h0l-73.4,73.3c-.6.5-.6,1.2-.5,1.7.2.8.9,1.3,1.6,1.4l48.6-.1c4.5.4,7.6-3,7.6-3l70.5-70.5c.3-.4,1.1-1.3,1.1-2.8h0Z"/>
  <path class="cls-1" d="M319.2,288c.4-4.5-3-7.6-3-7.6l-70.5-70.4c-.3-.3-1.3-1.1-2.8-1.1v-.1c-2,0-3.1,1.4-3.2,1.6l-43.67,43.67h0s-74.33,74.33-74.33,74.33l-.1.2c-2.4,2-4.1,5-4.1,7.7v49.3h-.1c0,1.2,1,1.8,1.8,1.8.4,0,.9-.2,1.4-.6l73-73.1h0s73,73.2,73,73.2c.7.7,1.4.6,1.8.5.8-.2,1.4-1,1.4-1.7v-48.7c0-2.7-1.1-5.3-3.1-7.1l-44.7-44.7,20.9-20.9v.1l73.3,73.3c.5.6,1.2.6,1.7.5.8-.2,1.3-.9,1.4-1.6l-.1-48.6Z"/>
  <path class="cls-1" d="M313.8,193.6h0l73.2-73c.7-.7.6-1.4.5-1.8-.2-.8-1-1.4-1.7-1.4h-48.7c-2.7,0-5.3,1.1-7.1,3.1l-44.65,44.65-.05-.05-.05.05-20.85-20.85h-.1s73.5-73.4,73.5-73.4c.6-.5.7-1.2.5-1.7-.2-.8-.9-1.3-1.6-1.4l-48.6.1c-4.5-.4-7.6,3-7.6,3l-70.5,70.5c-.3.3-1.1,1.3-1.1,2.8,0,2,1.4,3.2,1.6,3.3l46.1,46.1,71.9,71.9.2.2c2,2.4,5,4.1,7.7,4.1h49.3c1.3,0,1.8-1.1,1.8-1.8,0-.4-.2-.9-.6-1.4l-73.1-73Z"/>
</svg>