<?xml version="1.0" encoding="UTF-8"?>
<svg id="Layer_1" xmlns="http://www.w3.org/2000/svg" viewBox="0 0 579.669 579.669">
  <defs>
    <style>
      .cls-1 {
        fill: #fff;
      }

      .cls-2 {
        fill-rule: evenodd;
      }

      .cls-2, .cls-3 {
        fill: #dd2927;
      }
    </style>
  </defs>
  <circle class="cls-1" cx="289.834" cy="289.834" r="289.834"/>
  <path class="cls-2" d="M289.834,406.366c64.359,0,116.532-52.173,116.532-116.532s-52.173-116.532-116.532-116.532-116.532,52.173-116.532,116.532,52.173,116.532,116.532,116.532ZM289.834,367.522c42.905,0,77.688-34.783,77.688-77.688s-34.783-77.688-77.688-77.688-77.688,34.782-77.688,77.688,34.782,77.688,77.688,77.688Z"/>
  <path class="cls-3" d="M406.366,153.88c-10.727,0-19.422,8.696-19.422,19.422s8.695,19.422,19.422,19.422,19.422-8.696,19.422-19.422-8.695-19.422-19.422-19.422Z"/>
  <path class="cls-2" d="M88.893,139.82c-12.701,24.928-12.701,57.56-12.701,122.824v54.382c0,65.264,0,97.897,12.701,122.823,11.172,21.927,28.999,39.755,50.926,50.926,24.928,12.702,57.56,12.702,122.824,12.702h54.382c65.264,0,97.897,0,122.823-12.702,21.927-11.172,39.755-28.999,50.926-50.926,12.702-24.926,12.702-57.559,12.702-122.823v-54.382c0-65.264,0-97.896-12.702-122.824-11.172-21.927-28.999-39.754-50.926-50.926-24.926-12.701-57.559-12.701-122.823-12.701h-54.382c-65.264,0-97.896,0-122.824,12.701-21.927,11.172-39.754,28.999-50.926,50.926ZM317.025,115.036h-54.382c-33.273,0-55.892.03-73.375,1.459-17.03,1.391-25.739,3.913-31.814,7.009-14.618,7.448-26.503,19.333-33.951,33.951-3.095,6.075-5.617,14.784-7.009,31.814-1.428,17.483-1.459,40.102-1.459,73.375v54.382c0,33.274.03,55.891,1.459,73.374,1.391,17.031,3.913,25.74,7.009,31.815,7.448,14.617,19.333,26.501,33.951,33.95,6.075,3.096,14.784,5.619,31.814,7.009,17.483,1.428,40.102,1.459,73.375,1.459h54.382c33.274,0,55.891-.031,73.374-1.459,17.031-1.391,25.74-3.914,31.815-7.009,14.617-7.448,26.501-19.333,33.95-33.95,3.096-6.075,5.619-14.784,7.009-31.815,1.428-17.484,1.459-40.101,1.459-73.374v-54.382c0-33.273-.031-55.892-1.459-73.375-1.391-17.03-3.914-25.739-7.009-31.814-7.448-14.618-19.333-26.503-33.95-33.951-6.075-3.095-14.784-5.617-31.815-7.009-17.484-1.428-40.101-1.459-73.374-1.459Z"/>
</svg>