<?xml version="1.0" encoding="UTF-8"?>
<svg id="Layer_1" xmlns="http://www.w3.org/2000/svg" viewBox="0 0 624.611 624.611">
  <defs>
    <style>
      .cls-1 {
        fill: #fff;
      }

      .cls-2 {
        fill: #dd2927;
      }
    </style>
  </defs>
  <circle class="cls-1" cx="312.306" cy="312.306" r="312.306"/>
  <path class="cls-2" d="M451.018,472.291c52.667,1.918,96.951-39.146,99.008-91.809v-136.353c-2.057-52.661-46.341-93.726-99.008-91.809H191.934c-52.666-1.917-96.951,39.148-99.008,91.809v136.353c2.056,52.663,46.342,93.726,99.008,91.809h259.085Z"/>
  <path class="cls-1" d="M310.231,247.739l72.245,49.092c4.681,2.733,7.558,7.746,7.558,13.165s-2.877,10.433-7.558,13.165l-72.245,53.709c-13.713,9.302-34.465,1.371-34.465-13.165v-102.847c0-14.467,20.775-22.421,34.465-13.119Z"/>
</svg>